<svg xmlns="http://www.w3.org/2000/svg" xmlns:xlink="http://www.w3.org/1999/xlink" width="44" height="44" viewBox="0 0 44 44">
  <defs>
    <clipPath id="clip-Artboard_1">
      <rect width="44" height="44"/>
    </clipPath>
  </defs>
  <g id="Artboard_1" data-name="Artboard – 1" clip-path="url(#clip-Artboard_1)">
    <g id="g19" transform="translate(4 4)">
      <circle id="Ellipse_2" data-name="Ellipse 2" cx="18" cy="18" r="18" fill="#00cb6c"/>
      <path id="Path_1433" data-name="Path 1433" d="M66.767,97.318A1.92,1.92,0,0,1,68.613,96h14.5a1.92,1.92,0,0,1,1.846,1.318l2.767,7.249v9.885a1.322,1.322,0,0,1-1.318,1.318H85.088a1.322,1.322,0,0,1-1.318-1.318v-.659H67.954v.659a1.322,1.322,0,0,1-1.318,1.318H65.318A1.322,1.322,0,0,1,64,114.452v-9.885Zm16.343,12.521a1.977,1.977,0,1,0-1.977-1.977A1.942,1.942,0,0,0,83.111,109.839Zm-14.5,0a1.977,1.977,0,1,0-1.977-1.977A1.942,1.942,0,0,0,68.613,109.839Zm16.475-6.59-1.977-5.272h-14.5l-1.977,5.272Z" transform="translate(-57.862 -87.885)" fill="#fff"/>
    </g>
  </g>
</svg>
