<svg xmlns="http://www.w3.org/2000/svg" width="25" height="25" viewBox="0 0 25 25">
  <g id="icon" transform="translate(-0.5 -0.5)">
    <path id="Path_1750" data-name="Path 1750" d="M22.753,11.909a9.812,9.812,0,0,0-8.662-8.662V2.091a1.091,1.091,0,0,0-2.182,0V3.247a9.812,9.812,0,0,0-8.662,8.662H2.091a1.091,1.091,0,0,0,0,2.182H3.247a9.812,9.812,0,0,0,8.662,8.662v1.156a1.091,1.091,0,1,0,2.182,0V22.753a9.812,9.812,0,0,0,8.662-8.662h1.156a1.091,1.091,0,1,0,0-2.182ZM13,20.636A7.636,7.636,0,1,1,20.636,13,7.631,7.631,0,0,1,13,20.636Z" fill="#00cb6c" stroke="#fff" stroke-width="1"/>
    <g id="Ellipse_15" data-name="Ellipse 15" transform="translate(8.636 8.636)" fill="#fff" stroke="#00cb6c" stroke-width="1.5">
      <circle cx="4.364" cy="4.364" r="4.364" stroke="none"/>
      <circle cx="4.364" cy="4.364" r="3.614" fill="none"/>
    </g>
  </g>
</svg>
