<svg xmlns="http://www.w3.org/2000/svg" width="16" height="16" viewBox="0 0 16 16">
  <g id="icon" transform="translate(48.8 -144.5)">
    <path id="XMLID_378_" d="M-35.142,146.842A7.948,7.948,0,0,0-40.8,144.5a7.941,7.941,0,0,0-5.654,2.342A7.939,7.939,0,0,0-48.8,152.5a7.94,7.94,0,0,0,2.346,5.658A7.954,7.954,0,0,0-40.8,160.5a7.941,7.941,0,0,0,5.654-2.342A7.94,7.94,0,0,0-32.8,152.5,7.949,7.949,0,0,0-35.142,146.842Zm.585,3.089h-2.968c0-.009,0-.019-.006-.028a22.808,22.808,0,0,0-1.038-3.765A6.781,6.781,0,0,1-34.558,149.931Zm-7.146-4.109a6.6,6.6,0,0,1,.9-.06,7.225,7.225,0,0,1,.744.041,21.11,21.11,0,0,1,1.254,4.128h-3.872A24.624,24.624,0,0,1-41.7,145.822Zm-5.845,6.678a6.714,6.714,0,0,1,.128-1.31h3.337a20.666,20.666,0,0,0-.028,3.621h-3.027A6.663,6.663,0,0,1-47.549,152.5Zm1.029,3.57h2.565a13.947,13.947,0,0,0,.71,2.708A6.783,6.783,0,0,1-46.52,156.07Zm2.583-6.139h-3.1a6.784,6.784,0,0,1,3.909-3.756A27.205,27.205,0,0,0-43.937,149.931Zm4.038,9.247a7.046,7.046,0,0,1-.9.06,6.882,6.882,0,0,1-.923-.063,11.853,11.853,0,0,1-.963-3.1h3.944A10.827,10.827,0,0,1-39.9,159.178Zm1.354-4.367h-4.306a19.846,19.846,0,0,1,.025-3.621H-38.6A15.75,15.75,0,0,1-38.545,154.811Zm.256,3.945a12.345,12.345,0,0,0,.826-2.686h2.386A6.781,6.781,0,0,1-38.289,158.756Zm1.007-3.945.009-.113a16.986,16.986,0,0,0-.066-3.507h3.162a6.714,6.714,0,0,1,.128,1.31,6.663,6.663,0,0,1-.41,2.311Z" transform="translate(0)" fill="#fff"/>
  </g>
</svg>
