<svg xmlns="http://www.w3.org/2000/svg" width="113" height="32" viewBox="0 0 113 32">
  <g id="logo" transform="translate(53 -1)">
    <g id="g19" transform="translate(28 1)">
      <circle id="Ellipse_2" data-name="Ellipse 2" cx="16" cy="16" r="16" fill="#00cb6c"/>
      <path id="Path_1433" data-name="Path 1433" d="M66.46,97.172A1.706,1.706,0,0,1,68.1,96H80.987a1.706,1.706,0,0,1,1.641,1.172l2.46,6.443V112.4a1.175,1.175,0,0,1-1.172,1.171H82.745a1.175,1.175,0,0,1-1.172-1.171v-.586H67.515v.586a1.175,1.175,0,0,1-1.172,1.171H65.172A1.175,1.175,0,0,1,64,112.4v-8.786ZM80.987,108.3a1.757,1.757,0,1,0-1.757-1.757A1.726,1.726,0,0,0,80.987,108.3Zm-12.887,0a1.757,1.757,0,1,0-1.757-1.757A1.726,1.726,0,0,0,68.1,108.3Zm14.644-5.858-1.757-4.686H68.1l-1.757,4.686Z" transform="translate(-58.544 -88.786)" fill="#fff"/>
    </g>
    <text id="Applatin" transform="translate(20 24)" fill="#00cb6c" font-size="20" font-family="Tajawal-Bold, Tajawal" font-weight="700">
      <tspan x="-72" y="0">Applatin</tspan>
    </text>
  </g>
</svg>
