<svg xmlns="http://www.w3.org/2000/svg" width="25.8" height="25.952" viewBox="0 0 25.8 25.952">
  <g id="icon" transform="translate(-3.1 -3)">
    <path id="Path_1463" data-name="Path 1463" d="M13.4,8.785l-6.2,5.95a1.832,1.832,0,0,1-2.4,0l-.4-.4a2.8,2.8,0,0,1-.4-1.19V10.372a2.8,2.8,0,0,1,.4-1.19l4.8-4.76a1.832,1.832,0,0,1,2.4,0l2,1.983A2.112,2.112,0,0,1,13.4,8.785ZM15.2,19.5,23,27.231a1.944,1.944,0,0,0,2.8,0,1.906,1.906,0,0,0,0-2.777L18,16.719m-2.8-2.975-3.4-3.372L9,13.149l3.4,3.57M5.2,21.082a3.813,3.813,0,0,0,0,5.554,3.889,3.889,0,0,0,5.6,0,3.813,3.813,0,0,0,0-5.554,3.889,3.889,0,0,0-5.6,0Z" transform="translate(0 0.074)" fill="none" stroke="#707070" stroke-width="1.8"/>
    <path id="Path_1464" data-name="Path 1464" d="M20,7.867a5.751,5.751,0,0,0-.4-1.785L17.4,8.264h-2V6.479L17.6,4.3A3.793,3.793,0,0,0,16,3.9a3.967,3.967,0,1,0,4,3.967Z" transform="translate(8)" fill="none" stroke="#707070" stroke-linecap="round" stroke-linejoin="round" stroke-width="1.8"/>
    <path id="Path_1465" data-name="Path 1465" d="M17.7,6.5,6.5,17.607a8.127,8.127,0,0,1,1.8.992,3.213,3.213,0,0,1,1,1.785l11-10.909.2-.2A4.325,4.325,0,0,1,17.7,6.5Z" transform="translate(2.5 2.557)" fill="none" stroke="#707070" stroke-width="1.8"/>
    <ellipse id="Ellipse_8" data-name="Ellipse 8" cx="1.2" cy="1.19" rx="1.2" ry="1.19" transform="translate(6.8 22.743)" fill="#707070"/>
  </g>
</svg>
