<svg xmlns="http://www.w3.org/2000/svg" width="24.478" height="24.4" viewBox="0 0 24.478 24.4">
  <path id="icon" d="M22.968,15.248a3.79,3.79,0,0,1-.807-.145,11.875,11.875,0,0,1-1.578-.47,2.409,2.409,0,0,0-2.987,1.2l-.265.554a15.861,15.861,0,0,1-3.216-2.409,15.862,15.862,0,0,1-2.409-3.216l.554-.253a2.409,2.409,0,0,0,1.2-2.987A12.61,12.61,0,0,1,13,5.938c-.06-.265-.108-.542-.145-.807a3.613,3.613,0,0,0-3.613-3H5.613A3.6,3.6,0,0,0,2.036,6.227,22.967,22.967,0,0,0,8.551,19.475,22.967,22.967,0,0,0,21.8,25.991a3.083,3.083,0,0,0,.47,0,3.6,3.6,0,0,0,3.613-3.613V18.765a3.613,3.613,0,0,0-2.915-3.517Zm.59,7.226a1.211,1.211,0,0,1-1.385,1.192,20.667,20.667,0,0,1-11.887-5.829A20.667,20.667,0,0,1,4.408,5.914a1.211,1.211,0,0,1,1.2-1.385H9.226a1.2,1.2,0,0,1,1.2.939,4.74,4.74,0,0,0,.181.988,13.248,13.248,0,0,0,.554,1.855l-1.686.795a1.256,1.256,0,0,0-.626,1.59,17.451,17.451,0,0,0,8.431,8.431,1.256,1.256,0,0,0,1.59-.626l.759-1.686a14.946,14.946,0,0,0,1.9.554c.313.072.65.132.976.181a1.2,1.2,0,0,1,.939,1.2ZM16.452,2h-.843a1.209,1.209,0,1,0,.2,2.409h.638a7.226,7.226,0,0,1,7.226,7.226v.638a1.2,1.2,0,0,0,1.1,1.3h.1a1.2,1.2,0,0,0,1.2-1.1v-.843A9.635,9.635,0,0,0,16.452,2Zm2.409,9.635a1.2,1.2,0,1,0,2.409,0,4.817,4.817,0,0,0-4.817-4.817,1.2,1.2,0,1,0,0,2.409A2.409,2.409,0,0,1,18.861,11.635Z" transform="translate(-1.797 -1.8)" fill="#707070" stroke="#fff" stroke-width="0.4"/>
</svg>
